<svg id="Layer_1" data-name="Layer 1" xmlns="http://www.w3.org/2000/svg" viewBox="0 0 997.31 687.2"><rect x="670.74" y="587.81" width="90.01" height="13.55" fill="#4d4d4d"/><rect x="720.06" y="620.24" width="116.85" height="13.56" fill="#4d4d4d"/><polygon points="948.11 181.58 997.31 197.88 937.08 262.05 709.46 351.58 948.11 181.58" fill="#fff"/><polygon points="935.25 190.75 933.76 180.41 709.46 351.58 935.25 190.75" fill="#50bfd8"/><polygon points="933.76 180.41 880.16 167.43 802.13 218.01 709.46 351.58 933.76 180.41" fill="#fff"/><polygon points="936.26 262.17 953.84 244.57 958.32 281.7 709.46 351.58 936.26 262.17" fill="#50bfd8"/><path d="M687.66,200v82.11a73.59,73.59,0,0,1,64.21,98.14l5.46,1.71,73.33,21.31a155.73,155.73,0,0,0,7.56-47.56C838.31,271.36,771.34,202.7,687.66,200Z" transform="translate(-144.27 -40.85)" fill="#b2e2ef"/><path d="M679.45,199.9a155,155,0,0,0-106.71,45.4l58.78,57.23A73.32,73.32,0,0,1,679.45,282Z" transform="translate(-144.27 -40.85)" fill="#fff"/><path d="M679.45,429.07A73.57,73.57,0,0,1,625.89,308.5L567,251.15a155.61,155.61,0,0,0,112.44,260Z" transform="translate(-144.27 -40.85)" fill="#f69070"/><path d="M748.59,387.91a73.74,73.74,0,0,1-60.93,41V511.1A155.66,155.66,0,0,0,828,411Z" transform="translate(-144.27 -40.85)" fill="#ffdb77"/><rect y="57.7" width="402.04" height="531.67" fill="#fff"/><rect y="515.15" width="402.04" height="4.85" fill="#b2e2ef"/><polygon points="402.04 507.15 0 507.15 0 428.76 27.4 453.48 66.38 438.46 94.52 447.08 146.92 389.01 192.38 418.17 216.3 396.95 253.43 413.61 317.72 363.41 353.47 379.74 402.04 328.95 402.04 507.15" fill="#ffdb77"/><polygon points="402.04 507.15 0 507.15 0 482.63 28.7 469.38 65.07 446.42 94.96 457.9 146.26 433.17 188.48 447.3 216.3 423.87 248.88 457.01 309.95 418.04 353.79 400.66 402.04 425.22 402.04 507.15" fill="#b2e2ef"/><polygon points="402.04 507.15 0 507.15 0 488.8 26.11 494.56 65.07 472.03 95.63 471.57 143.68 453.9 190.43 477.78 212.7 438.46 248.88 467.6 310.6 451.71 353.47 430.51 402.04 443.46 402.04 507.15" fill="#f69070"/><rect x="44.72" y="213.06" width="92.1" height="5.45" fill="#f69070"/><rect x="44.72" y="200.58" width="306.61" height="5.46" fill="#f69070"/><rect x="44.72" y="188.1" width="306.61" height="5.46" fill="#f69070"/><rect x="44.72" y="175.65" width="306.61" height="5.43" fill="#f69070"/><rect x="44.72" y="344.58" width="193.27" height="5.45" fill="#f69070"/><rect x="44.72" y="332.11" width="306.61" height="5.44" fill="#f69070"/><rect x="44.72" y="319.63" width="306.61" height="5.45" fill="#f69070"/><rect x="44.72" y="276.16" width="112.18" height="5.44" fill="#f69070"/><rect x="44.72" y="263.67" width="306.61" height="5.46" fill="#f69070"/><rect x="44.72" y="251.22" width="306.61" height="5.41" fill="#f69070"/><rect x="149.76" y="118.08" width="96.55" height="13.21" fill="#b2e2ef"/><rect x="51.92" y="548.73" width="74.49" height="7.98" fill="#f69070"/><rect x="25.59" y="544.76" width="15.95" height="15.94" fill="#ffdb77"/><rect x="176.95" y="548.73" width="74.44" height="7.98" fill="#f69070"/><rect x="150.6" y="544.76" width="15.93" height="15.94" fill="#b2e2ef"/><rect x="300.96" y="548.47" width="74.51" height="7.98" fill="#f69070"/><rect x="274.65" y="544.49" width="15.93" height="15.94" fill="#f69070"/><path d="M286.75,703v12.52A12.34,12.34,0,0,0,299,728.05H778.14a12.34,12.34,0,0,0,12.21-12.49V703Z" transform="translate(-144.27 -40.85)" fill="#fff"/><path d="M767.05,703V438.67c0-14.69-11.64-26.63-26-26.63h-405C321.68,412,310,424,310,438.67V703" transform="translate(-144.27 -40.85)" fill="#686969"/><rect x="188.46" y="396.43" width="411.64" height="245.33" fill="#e6e6e5"/><path d="M545.26,424.78a6.72,6.72,0,1,1-6.72-6.87A6.79,6.79,0,0,1,545.26,424.78Z" transform="translate(-144.27 -40.85)" fill="#fff"/><rect x="188.46" y="396.43" width="411.64" height="20.6" fill="#bbc0c4"/><path d="M352.36,447.58a5.5,5.5,0,1,1-5.49-5.65A5.56,5.56,0,0,1,352.36,447.58Z" transform="translate(-144.27 -40.85)" fill="#f69070"/><path d="M371.47,447.58a5.51,5.51,0,1,1-5.51-5.65A5.57,5.57,0,0,1,371.47,447.58Z" transform="translate(-144.27 -40.85)" fill="#ffdb77"/><path d="M390.54,447.58a5.51,5.51,0,1,1-5.47-5.65A5.56,5.56,0,0,1,390.54,447.58Z" transform="translate(-144.27 -40.85)" fill="#b2e2ef"/><path d="M731.15,447.58l4-4.1a1.52,1.52,0,0,0,0-2.13,1.47,1.47,0,0,0-2.09,0l-4,4.1-4-4.1a1.48,1.48,0,0,0-2.1,0,1.52,1.52,0,0,0,0,2.13l4,4.1-4,4.08a1.53,1.53,0,0,0,0,2.14,1.45,1.45,0,0,0,2.1,0l4-4.09,4,4.09a1.44,1.44,0,0,0,2.09,0,1.53,1.53,0,0,0,0-2.14Z" transform="translate(-144.27 -40.85)" fill="#333"/><path d="M700.33,604.79a6.43,6.43,0,0,1-6.43,6.42h-204a6.41,6.41,0,0,1-6.42-6.42V476.24a6.41,6.41,0,0,1,6.42-6.41h204a6.43,6.43,0,0,1,6.43,6.41Z" transform="translate(-144.27 -40.85)" fill="#d9dee6"/><path d="M700.33,604.79a6.43,6.43,0,0,1-6.43,6.42h-204a6.41,6.41,0,0,1-6.42-6.42V476.24a6.41,6.41,0,0,1,6.42-6.41h204a6.43,6.43,0,0,1,6.43,6.41Z" transform="translate(-144.27 -40.85)" fill="#333"/><path d="M489.93,469.83a6.42,6.42,0,0,0-6.44,6.41v10L500,469.83Z" transform="translate(-144.27 -40.85)" fill="none"/><polygon points="393.61 428.98 339.22 483.37 339.22 497.59 407.86 428.98 393.61 428.98" fill="none"/><polygon points="396.87 570.36 538.26 428.98 524.02 428.98 382.63 570.36 396.87 570.36" fill="none"/><polygon points="367.56 428.98 339.22 457.28 339.22 471.52 381.76 428.98 367.56 428.98" fill="none"/><polygon points="512.17 428.98 497.93 428.98 356.56 570.36 370.8 570.36 512.17 428.98" fill="none"/><polygon points="475.1 570.36 556.06 489.41 556.06 475.18 460.88 570.36 475.1 570.36" fill="none"/><path d="M567.21,611.21,700.33,478.12v-1.88a6.42,6.42,0,0,0-6-6.37L553,611.21Z" transform="translate(-144.27 -40.85)" fill="none"/><polygon points="527.26 570.36 556.06 541.58 556.06 527.34 513.04 570.36 527.26 570.36" fill="none"/><path d="M616.13,469.83,483.49,602.46v2.33a6.4,6.4,0,0,0,5.59,6.33L630.35,469.83Z" transform="translate(-144.27 -40.85)" fill="none"/><path d="M693.9,611.21a6.43,6.43,0,0,0,6.43-6.42V594.28L683.4,611.21Z" transform="translate(-144.27 -40.85)" fill="none"/><polygon points="501.19 570.36 556.06 515.5 556.06 501.27 486.95 570.36 501.19 570.36" fill="none"/><polygon points="445.77 428.98 339.22 535.54 339.22 549.75 460.01 428.98 445.77 428.98" fill="none"/><polygon points="419.7 428.98 339.22 509.46 339.22 523.68 433.92 428.98 419.7 428.98" fill="none"/><polygon points="449.03 570.36 556.06 463.34 556.06 449.12 434.79 570.36 449.03 570.36" fill="none"/><polygon points="355.7 428.98 339.22 445.43 339.22 457.28 367.56 428.98 355.7 428.98" fill="#f69070"/><polygon points="381.76 428.98 339.22 471.52 339.22 483.37 393.61 428.98 381.76 428.98" fill="#b2e2ef"/><polygon points="407.86 428.98 339.22 497.59 339.22 509.46 419.7 428.98 407.86 428.98" fill="#f69070"/><polygon points="433.92 428.98 339.22 523.68 339.22 535.54 445.77 428.98 433.92 428.98" fill="#b2e2ef"/><polygon points="460.01 428.98 339.22 549.75 339.22 561.62 471.86 428.98 460.01 428.98" fill="#f69070"/><path d="M630.35,469.83,489.08,611.12a4.52,4.52,0,0,0,.85.09h10.9L642.2,469.83Z" transform="translate(-144.27 -40.85)" fill="#b2e2ef"/><polygon points="382.63 570.36 524.02 428.98 512.17 428.98 370.8 570.36 382.63 570.36" fill="#f69070"/><path d="M553,611.21,694.34,469.87a3.77,3.77,0,0,0-.44,0H682.53L541.14,611.21Z" transform="translate(-144.27 -40.85)" fill="#b2e2ef"/><polygon points="434.79 570.36 556.06 449.12 556.06 437.27 422.94 570.36 434.79 570.36" fill="#f69070"/><polygon points="460.88 570.36 556.06 475.18 556.06 463.34 449.03 570.36 460.88 570.36" fill="#b2e2ef"/><polygon points="486.95 570.36 556.06 501.27 556.06 489.41 475.1 570.36 486.95 570.36" fill="#f69070"/><polygon points="513.04 570.36 556.06 527.34 556.06 515.5 501.19 570.36 513.04 570.36" fill="#b2e2ef"/><polygon points="539.13 570.36 556.06 553.43 556.06 541.58 527.26 570.36 539.13 570.36" fill="#f69070"/><rect x="348.5" y="437.32" width="198.3" height="124.69" fill="#fff"/><rect x="361.65" y="449.12" width="51.03" height="22.41" fill="#bbc0c4"/><rect x="495.42" y="444.29" width="42.85" height="49.86" fill="#f3f3f3"/><rect x="228.13" y="495.36" width="214.73" height="129.68" fill="#fff"/><polygon points="336.08 557.38 228.13 625.04 228.13 495.36 336.08 557.38" fill="#f3f3f3"/><polygon points="334.92 557.38 442.86 625.04 442.86 495.36 334.92 557.38" fill="#f3f3f3"/><polygon points="335.94 577.07 228.13 495.36 442.86 495.36 335.94 577.07" fill="#bbc0c4"/><polygon points="335.88 556.23 228.13 495.36 442.86 495.36 335.88 556.23" fill="#fff"/><path d="M670.18,529.76A118.71,118.71,0,1,1,754.12,495,118,118,0,0,1,670.18,529.76Zm0-206.44a87.66,87.66,0,1,0,62,25.67A87.17,87.17,0,0,0,670.18,323.32Z" transform="translate(-144.27 -40.85)" fill="#a3a3a2"/><g opacity="0.4"><path d="M734.29,346.88a90.7,90.7,0,1,1-128.26,0A90.74,90.74,0,0,1,734.29,346.88Z" transform="translate(-144.27 -40.85)" fill="#cccbc9"/></g><g opacity="0.2"><path d="M662.7,320.65a90.67,90.67,0,0,1,0,180.72,90.67,90.67,0,1,0,0-180.72Z" transform="translate(-144.27 -40.85)" fill="#333"/></g><path d="M603.22,400.18a9.45,9.45,0,0,1-2.7-.4,9.32,9.32,0,0,1-6.22-11.6q1.07-3.46,2.42-6.84a78.61,78.61,0,0,1,31-37.18,9.31,9.31,0,0,1,10,15.72A60,60,0,0,0,614,388.32c-.68,1.73-1.33,3.46-1.85,5.24A9.33,9.33,0,0,1,603.22,400.18Z" transform="translate(-144.27 -40.85)" fill="#fff"/><path d="M612.25,459.46a9.27,9.27,0,0,1-7.75-4.12,79.84,79.84,0,0,1-12.67-32.4,9.31,9.31,0,1,1,18.41-2.82A61,61,0,0,0,620,445a9.31,9.31,0,0,1-7.7,14.51Z" transform="translate(-144.27 -40.85)" fill="#fff"/><polygon points="735.95 602.15 587.93 454.15 609.85 432.2 757.88 580.23 735.95 602.15" fill="#a3a3a2"/><path d="M651.05,134.08H568.88a3.1,3.1,0,1,1,0-6.19h82.17a3.1,3.1,0,1,1,0,6.19Z" transform="translate(-144.27 -40.85)" fill="#333"/><path d="M679.65,111.7H666.38a3.11,3.11,0,1,1,0-6.21h13.27a3.11,3.11,0,0,1,0,6.21Z" transform="translate(-144.27 -40.85)" fill="#333"/><path d="M695.47,163.28H682.19a3.1,3.1,0,1,1,0-6.2h13.28a3.1,3.1,0,0,1,0,6.2Z" transform="translate(-144.27 -40.85)" fill="#333"/><path d="M651.05,111.7H601a3.11,3.11,0,1,1,0-6.21h50a3.11,3.11,0,1,1,0,6.21Z" transform="translate(-144.27 -40.85)" fill="#333"/><path d="M725.68,88.94H665.25a3.11,3.11,0,1,1,0-6.21h60.43a3.11,3.11,0,0,1,0,6.21Z" transform="translate(-144.27 -40.85)" fill="#333"/><path d="M890.32,502.29H808.1a3.11,3.11,0,0,1,0-6.22h82.22a3.11,3.11,0,0,1,0,6.22Z" transform="translate(-144.27 -40.85)" fill="#333"/><path d="M918.86,479.89H905.59a3.1,3.1,0,1,1,0-6.2h13.27a3.1,3.1,0,1,1,0,6.2Z" transform="translate(-144.27 -40.85)" fill="#333"/><path d="M934.7,531.49H921.41a3.11,3.11,0,0,1,0-6.21H934.7a3.11,3.11,0,0,1,0,6.21Z" transform="translate(-144.27 -40.85)" fill="#333"/><path d="M890.32,479.89H840.25a3.1,3.1,0,0,1,0-6.2h50.07a3.1,3.1,0,1,1,0,6.2Z" transform="translate(-144.27 -40.85)" fill="#333"/><path d="M964.89,457.13h-7.77A3.06,3.06,0,0,1,954,454a3.1,3.1,0,0,1,3.08-3.12h7.77A3.09,3.09,0,0,1,968,454,3.06,3.06,0,0,1,964.89,457.13Z" transform="translate(-144.27 -40.85)" fill="#333"/><path d="M942.16,457.13H927.21a3.09,3.09,0,0,1-3.12-3.09,3.12,3.12,0,0,1,3.12-3.12h14.95a3.1,3.1,0,0,1,3.1,3.12A3.07,3.07,0,0,1,942.16,457.13Z" transform="translate(-144.27 -40.85)" fill="#333"/><path d="M912.24,457.13h-7.76a3.09,3.09,0,0,1-3.12-3.09,3.12,3.12,0,0,1,3.12-3.12h7.76a3.1,3.1,0,0,1,3.09,3.12A3.07,3.07,0,0,1,912.24,457.13Z" transform="translate(-144.27 -40.85)" fill="#333"/><path d="M887.4,255.5h-7.74a3.1,3.1,0,1,1,0-6.2h7.74a3.1,3.1,0,1,1,0,6.2Z" transform="translate(-144.27 -40.85)" fill="#333"/><path d="M870.06,255.5h-9.57a3.1,3.1,0,1,1,0-6.2h9.57a3.1,3.1,0,1,1,0,6.2Z" transform="translate(-144.27 -40.85)" fill="#333"/><path d="M850.91,255.5h-7.76a3.1,3.1,0,0,1,0-6.2h7.76a3.1,3.1,0,1,1,0,6.2Z" transform="translate(-144.27 -40.85)" fill="#333"/><path d="M906.61,278.22H868.15a3.11,3.11,0,0,1,0-6.21h38.46a3.11,3.11,0,1,1,0,6.21Z" transform="translate(-144.27 -40.85)" fill="#333"/><path d="M366,69.76h-7.75a3.11,3.11,0,1,1,0-6.21H366a3.11,3.11,0,1,1,0,6.21Z" transform="translate(-144.27 -40.85)" fill="#333"/><path d="M385.11,69.76h-9.6a3.11,3.11,0,0,1,0-6.21h9.6a3.11,3.11,0,0,1,0,6.21Z" transform="translate(-144.27 -40.85)" fill="#333"/><path d="M402.43,69.76h-7.77a3.11,3.11,0,0,1,0-6.21h7.77a3.11,3.11,0,1,1,0,6.21Z" transform="translate(-144.27 -40.85)" fill="#333"/><path d="M377.42,47H339a3.1,3.1,0,1,1,0-6.19h38.46a3.1,3.1,0,1,1,0,6.19Z" transform="translate(-144.27 -40.85)" fill="#333"/><path d="M234.65,678.22H196.19a3.11,3.11,0,0,1,0-6.22h38.46a3.11,3.11,0,0,1,0,6.22Z" transform="translate(-144.27 -40.85)" fill="#333"/><path d="M246.56,659.79H208.1a3.1,3.1,0,1,1,0-6.2h38.46a3.1,3.1,0,0,1,0,6.2Z" transform="translate(-144.27 -40.85)" fill="#333"/><path d="M797.59,521.36h60.73a21.46,21.46,0,0,1,21.4,21.4V704a21.45,21.45,0,0,1-21.4,21.38H797.59A21.44,21.44,0,0,1,776.2,704V542.76A21.46,21.46,0,0,1,797.59,521.36Z" transform="translate(-144.27 -40.85)" fill="#333237" fill-rule="evenodd"/><path d="M785.61,538.48h84.7a.3.3,0,0,1,.3.31V706.28a.3.3,0,0,1-.3.3h-84.7a.3.3,0,0,1-.31-.3V538.79A.31.31,0,0,1,785.61,538.48Z" transform="translate(-144.27 -40.85)" fill="#fff" fill-rule="evenodd"/><path d="M828,720.93a5.23,5.23,0,1,0-5.23-5.23A5.24,5.24,0,0,0,828,720.93Z" transform="translate(-144.27 -40.85)" fill="#fff" fill-rule="evenodd"/><g opacity="0.5"><path d="M843.29,564.6A15.33,15.33,0,1,1,828,549.28,15.33,15.33,0,0,1,843.29,564.6Z" transform="translate(-144.27 -40.85)" fill="#333" fill-rule="evenodd"/><path d="M836.62,572.56v0a8.64,8.64,0,0,0-2-5.52,18.65,18.65,0,0,0-13.32,0,8.58,8.58,0,0,0-2,5.52v0Z" transform="translate(-144.27 -40.85)" fill="#e1e5eb" fill-rule="evenodd"/><path d="M832.13,560.82a4.17,4.17,0,1,1-4.17-4.17A4.17,4.17,0,0,1,832.13,560.82Z" transform="translate(-144.27 -40.85)" fill="#e1e5eb" fill-rule="evenodd"/></g><rect x="648.49" y="544.26" width="54.29" height="12.19" fill="#e1e5eb"/><rect x="649.91" y="545.68" width="51.44" height="9.35" fill="#fff"/><rect x="703.72" y="544.26" width="15.17" height="12.19" fill="#e1e5eb"/><rect x="705.14" y="545.68" width="12.33" height="9.35" fill="#255dab"/><path d="M857.42,589.84a2.91,2.91,0,1,1-3.18-2.63A2.91,2.91,0,0,1,857.42,589.84Zm-4.66.44a1.77,1.77,0,1,0,1.59-1.93A1.77,1.77,0,0,0,852.76,590.28Z" transform="translate(-144.27 -40.85)" fill="#fff"/><path d="M859.54,594.58a.55.55,0,0,1-.17.46.57.57,0,0,1-.81,0l-2.6-2.64a.58.58,0,0,1,0-.81.57.57,0,0,1,.82,0l2.6,2.64A.73.73,0,0,1,859.54,594.58Z" transform="translate(-144.27 -40.85)" fill="#fff"/><path d="M811,629.19A11.25,11.25,0,1,0,799.77,618,11.27,11.27,0,0,0,811,629.19Z" transform="translate(-144.27 -40.85)" fill="#f69070" fill-rule="evenodd"/><polygon points="673.76 574.18 666.74 579.24 659.73 574.18 666.74 569.12 673.76 574.18" fill="#cfcfce" fill-rule="evenodd"/><polygon points="659.73 582.46 673.76 582.46 673.76 574.18 666.74 579.24 659.73 574.18 659.73 582.46" fill="#eae9e8" fill-rule="evenodd"/><polygon points="659.73 582.46 673.76 582.46 668.02 578.32 665.46 578.32 665.46 578.32 659.73 582.46" fill="#fffdfa" fill-rule="evenodd"/><path d="M811,658.84a11.25,11.25,0,1,0-11.24-11.25A11.28,11.28,0,0,0,811,658.84Z" transform="translate(-144.27 -40.85)" fill="#b2e2ef" fill-rule="evenodd"/><path d="M806.43,653.48a2,2,0,0,0,2-2h0v-7.53H815v3.75a1.93,1.93,0,0,0-.75-.15,2,2,0,1,0,2,2h0v-8.18h-9.08v8.19a2,2,0,1,0-.75,3.92Z" transform="translate(-144.27 -40.85)" fill="#fffdfa"/><path d="M811,688.49a11.25,11.25,0,1,0-11.24-11.25A11.28,11.28,0,0,0,811,688.49Z" transform="translate(-144.27 -40.85)" fill="#f69070" fill-rule="evenodd"/><path d="M813.92,683.5a.67.67,0,0,1-.93,0l-.24-.24a1.84,1.84,0,0,0-1.11-.46h-5.12a1,1,0,0,1-.89-.62l-2.17-6a1,1,0,0,1,1-1.44h4.26a1.72,1.72,0,0,0-.1-1.39,3,3,0,0,1-.84-2.22,3.06,3.06,0,0,1,.47-1.21c.64-.83,1.56-.63,1.56.11s-.47,1.77,1.19,2.86a9.92,9.92,0,0,1,2.8,3.23l.47.48,2.81,2.8a.7.7,0,0,1,0,.94Z" transform="translate(-144.27 -40.85)" fill="#fff"/><polygon points="673.51 639.64 669.75 643.4 670.62 644.26 674.38 640.5 673.51 639.64" fill="#fff"/><path d="M844.9,688.49a11.25,11.25,0,1,0-11.24-11.25A11.28,11.28,0,0,0,844.9,688.49Z" transform="translate(-144.27 -40.85)" fill="#ffdb77" fill-rule="evenodd"/><path d="M851.69,680.48a6.68,6.68,0,0,0,.31-2,7.1,7.1,0,1,0-14.19,0,7.06,7.06,0,0,0,.3,2,.31.31,0,0,0-.15.26v.38a.32.32,0,0,0,.32.32h.78v.69c0,.82,1,1.48,2.15,1.49V678a2.12,2.12,0,0,0-2.1,1.18,1,1,0,0,0-.05.31v.94h-.78a.27.27,0,0,0-.17.06V680a1.9,1.9,0,0,1,.09-.58,2.23,2.23,0,0,1,.8-1.12h0a5.91,5.91,0,0,1,11.82,0,2.24,2.24,0,0,1,.79,1.29,2.4,2.4,0,0,1,0,.37v.49l-.1,0h-.84v-.94a1,1,0,0,0,0-.19,2,2,0,0,0-2.09-1.3v5.62c1.17,0,2.11-.67,2.11-1.48v-.69h.84a.32.32,0,0,0,.32-.32v-.38A.3.3,0,0,0,851.69,680.48Z" transform="translate(-144.27 -40.85)" fill="#fff"/><path d="M844.9,606.7a11.25,11.25,0,1,0,11.26,11.24A11.26,11.26,0,0,0,844.9,606.7Z" transform="translate(-144.27 -40.85)" fill="#2c7cb9" fill-rule="evenodd"/><path d="M850.16,618.64v-6.07a.8.8,0,0,0-1.6,0v6.07Z" transform="translate(-144.27 -40.85)" fill="#fff"/><path d="M848.56,620.67v2.65a.8.8,0,0,0,1.6,0v-2.65Z" transform="translate(-144.27 -40.85)" fill="#fff"/><path d="M850.44,620.3h-2.16a.66.66,0,0,1-.66-.66h0a.65.65,0,0,1,.66-.66h2.16a.66.66,0,0,1,.67.66h0A.67.67,0,0,1,850.44,620.3Z" transform="translate(-144.27 -40.85)" fill="#fff"/><path d="M845.73,615.06v-2.49a.8.8,0,1,0-1.6,0v2.49Z" transform="translate(-144.27 -40.85)" fill="#fff"/><path d="M844.13,617.09v6.23a.8.8,0,1,0,1.6,0v-6.23Z" transform="translate(-144.27 -40.85)" fill="#fff"/><path d="M846,616.72h-2.17a.66.66,0,0,1-.65-.66h0a.66.66,0,0,1,.65-.66H846a.65.65,0,0,1,.66.66h0A.66.66,0,0,1,846,616.72Z" transform="translate(-144.27 -40.85)" fill="#fff"/><path d="M841.24,617.11v-4.54a.8.8,0,1,0-1.6,0v4.54Z" transform="translate(-144.27 -40.85)" fill="#fff"/><path d="M839.65,619.14v4.18a.8.8,0,1,0,1.6,0v-4.18Z" transform="translate(-144.27 -40.85)" fill="#fff"/><path d="M841.54,618.77h-2.17a.66.66,0,0,1-.66-.66h0a.66.66,0,0,1,.66-.67h2.17a.67.67,0,0,1,.66.67h0A.67.67,0,0,1,841.54,618.77Z" transform="translate(-144.27 -40.85)" fill="#fff"/><path d="M844.9,658.84a11.25,11.25,0,1,0-11.24-11.25A11.27,11.27,0,0,0,844.9,658.84Z" transform="translate(-144.27 -40.85)" fill="#ffdb77" fill-rule="evenodd"/><path d="M844.9,638.63a9,9,0,1,0,9,9A8.95,8.95,0,0,0,844.9,638.63Zm0,16.64a7.68,7.68,0,1,1,7.68-7.68A7.67,7.67,0,0,1,844.9,655.27Z" transform="translate(-144.27 -40.85)" fill="#fff" fill-rule="evenodd"/><path d="M844.9,643a4.59,4.59,0,1,0,4.59,4.59A4.59,4.59,0,0,0,844.9,643Z" transform="translate(-144.27 -40.85)" fill="#fff" fill-rule="evenodd"/><path d="M831.46,534.66h-7a2.72,2.72,0,0,1-2.71-2.72h0a2.73,2.73,0,0,1,2.71-2.72h7a2.73,2.73,0,0,1,2.71,2.72h0A2.72,2.72,0,0,1,831.46,534.66Z" transform="translate(-144.27 -40.85)" fill="#cccbc9" fill-rule="evenodd"/></svg>